<svg
            width="26"
            height="26"
            viewBox="0 0 26 26"
            fill="none"
            xmlns="http://www.w3.org/2000/svg"
          >
            <path
              d="M1 13C1 14.5759 1.31039 16.1363 1.91345 17.5922C2.5165 19.0481 3.40042 20.371 4.51472 21.4853C5.62902 22.5996 6.95189 23.4835 8.4078 24.0866C9.86371 24.6896 11.4241 25 13 25C14.5759 25 16.1363 24.6896 17.5922 24.0866C19.0481 23.4835 20.371 22.5996 21.4853 21.4853C22.5996 20.371 23.4835 19.0481 24.0866 17.5922C24.6896 16.1363 25 14.5759 25 13C25 11.4241 24.6896 9.86371 24.0866 8.4078C23.4835 6.95189 22.5996 5.62902 21.4853 4.51472C20.371 3.40042 19.0481 2.5165 17.5922 1.91345C16.1363 1.31039 14.5759 1 13 1C11.4241 1 9.86371 1.31039 8.4078 1.91345C6.95189 2.5165 5.62902 3.40042 4.51472 4.51472C3.40042 5.62902 2.5165 6.95189 1.91345 8.4078C1.31039 9.86371 1 11.4241 1 13Z"
              stroke="white"
              stroke-width="2"
              stroke-linecap="round"
              stroke-linejoin="round"
            />
            <path
              d="M9 10.333C9 11.3939 9.42143 12.4113 10.1716 13.1614C10.9217 13.9116 11.9391 14.333 13 14.333C14.0609 14.333 15.0783 13.9116 15.8284 13.1614C16.5786 12.4113 17 11.3939 17 10.333C17 9.27214 16.5786 8.25473 15.8284 7.50458C15.0783 6.75444 14.0609 6.33301 13 6.33301C11.9391 6.33301 10.9217 6.75444 10.1716 7.50458C9.42143 8.25473 9 9.27214 9 10.333Z"
              stroke="white"
              stroke-width="2"
              stroke-linecap="round"
              stroke-linejoin="round"
            />
            <path
              d="M5.22412 22.1317C5.55413 21.0333 6.22941 20.0706 7.14978 19.3863C8.07015 18.702 9.18658 18.3327 10.3335 18.333H15.6668C16.8151 18.3326 17.9329 18.7029 18.854 19.3887C19.775 20.0746 20.4501 21.0394 20.7788 22.1397"
              stroke="white"
              stroke-width="2"
              stroke-linecap="round"
              stroke-linejoin="round"
            />
          </svg>