<svg
              width="25"
              height="31"
              viewBox="0 0 25 31"
              fill="none"
              xmlns="http://www.w3.org/2000/svg"
            >
              <path
                d="M15.5 2V8C15.5 8.39782 15.658 8.77936 15.9393 9.06066C16.2206 9.34196 16.6022 9.5 17 9.5H23"
                stroke="white"
                stroke-width="2.75"
                stroke-linecap="round"
                stroke-linejoin="round"
              />
              <path
                d="M20 29H5C4.20435 29 3.44129 28.6839 2.87868 28.1213C2.31607 27.5587 2 26.7956 2 26V5C2 4.20435 2.31607 3.44129 2.87868 2.87868C3.44129 2.31607 4.20435 2 5 2H15.5L23 9.5V26C23 26.7956 22.6839 27.5587 22.1213 28.1213C21.5587 28.6839 20.7956 29 20 29Z"
                stroke="white"
                stroke-width="2.75"
                stroke-linecap="round"
                stroke-linejoin="round"
              />
              <path
                d="M12.6174 17.0769C11.886 17.0769 11.4704 17.4089 11.4039 17.4753V17.4919C11.6699 17.4255 11.9026 17.3923 12.1021 17.3923C13.0496 17.3923 13.7644 18.0562 14.2132 18.6039L15.3104 19.8654C15.7925 20.4298 16.208 20.5791 16.6569 20.5791C16.8397 20.5791 17.0226 20.5625 17.0724 20.5459V20.5293C17.0226 20.5127 16.6402 20.38 16.075 19.7326L15.2771 18.7533C14.6122 17.9234 13.8143 17.0769 12.6174 17.0769Z"
                fill="white"
                class="fill-svg"
              />
              <path
                d="M12.0354 17.7075C11.8525 17.7075 11.653 17.7407 11.6031 17.7905V17.8071C12.1683 17.8901 12.6172 18.1225 13.1824 18.7698L14.213 19.9649C14.5288 20.3466 14.961 20.5624 15.4431 20.5624C15.5428 20.5624 15.6758 20.5458 15.7589 20.5292V20.5126C15.4763 20.4296 15.1771 20.2968 14.8447 19.9151L13.7475 18.7034C13.3652 18.2221 12.6837 17.7075 12.0354 17.7075Z"
                fill="white"
                class="fill-svg"
              />
              <path
                d="M18.6349 15.5H7.06519C6.73272 15.5 6.5 15.6826 6.5 16.0809V19.9815C6.5 20.3135 6.73272 20.5459 7.04856 20.5459H7.4309C8.27868 20.5459 8.87711 19.6662 9.69165 18.7035C10.5727 17.6578 11.5202 16.6951 12.8334 16.6951C14.13 16.6951 15.1108 17.6412 16.0085 18.7201C16.8729 19.7326 17.4048 20.5459 18.2193 20.5459H18.5518C18.9674 20.5459 19.2001 20.2803 19.2001 19.9815V16.0809C19.2001 15.666 18.9674 15.5 18.6349 15.5Z"
                fill="white"
                class="fill-svg"
              />
            </svg>