<svg
                        width="53"
                        height="53"
                        viewBox="0 0 53 53"
                        fill="none"
                        xmlns="http://www.w3.org/2000/svg"
                        class="mb-5"
                      >
                        <path
                          d="M3 5.9951C3 5.20075 3.31555 4.43893 3.87724 3.87724C4.43893 3.31555 5.20075 3 5.9951 3H17.9755C18.7698 3 19.5317 3.31555 20.0933 3.87724C20.655 4.43893 20.9706 5.20075 20.9706 5.9951V17.9755C20.9706 18.7698 20.655 19.5317 20.0933 20.0933C19.5317 20.655 18.7698 20.9706 17.9755 20.9706H5.9951C5.20075 20.9706 4.43893 20.655 3.87724 20.0933C3.31555 19.5317 3 18.7698 3 17.9755V5.9951Z"
                          stroke="#00A6E2"
                          stroke-width="4.75"
                          stroke-linecap="round"
                          stroke-linejoin="round"
                        />
                        <path
                          d="M32.0293 5.9951C32.0293 5.20075 32.3449 4.43893 32.9065 3.87724C33.4682 3.31555 34.23 3 35.0244 3H47.0048C47.7991 3 48.561 3.31555 49.1226 3.87724C49.6843 4.43893 49.9999 5.20075 49.9999 5.9951V17.9755C49.9999 18.7698 49.6843 19.5317 49.1226 20.0933C48.561 20.655 47.7991 20.9706 47.0048 20.9706H35.0244C34.23 20.9706 33.4682 20.655 32.9065 20.0933C32.3449 19.5317 32.0293 18.7698 32.0293 17.9755V5.9951Z"
                          stroke="#00A6E2"
                          stroke-width="4.75"
                          stroke-linecap="round"
                          stroke-linejoin="round"
                        />
                        <path
                          d="M3 35.0244C3 34.23 3.31555 33.4682 3.87724 32.9065C4.43893 32.3449 5.20075 32.0293 5.9951 32.0293H17.9755C18.7698 32.0293 19.5317 32.3449 20.0933 32.9065C20.655 33.4682 20.9706 34.23 20.9706 35.0244V47.0048C20.9706 47.7991 20.655 48.561 20.0933 49.1226C19.5317 49.6843 18.7698 49.9999 17.9755 49.9999H5.9951C5.20075 49.9999 4.43893 49.6843 3.87724 49.1226C3.31555 48.561 3 47.7991 3 47.0048V35.0244Z"
                          stroke="#00A6E2"
                          stroke-width="4.75"
                          stroke-linecap="round"
                          stroke-linejoin="round"
                        />
                        <path
                          d="M32.0293 41.0146H49.9999M41.0146 32.0293V49.9999"
                          stroke="#00A6E2"
                          stroke-width="4.75"
                          stroke-linecap="round"
                          stroke-linejoin="round"
                        />
                      </svg>