<svg width="29" height="29" viewBox="0 0 29 29" fill="none" xmlns="http://www.w3.org/2000/svg">
              <path d="M1.5 3.375C1.5 2.94402 1.67121 2.5307 1.97595 2.22595C2.2807 1.92121 2.69402 1.75 3.125 1.75H9.625C10.056 1.75 10.4693 1.92121 10.7741 2.22595C11.0788 2.5307 11.25 2.94402 11.25 3.375V9.875C11.25 10.306 11.0788 10.7193 10.7741 11.0241C10.4693 11.3288 10.056 11.5 9.625 11.5H3.125C2.69402 11.5 2.2807 11.3288 1.97595 11.0241C1.67121 10.7193 1.5 10.306 1.5 9.875V3.375Z" stroke="black" stroke-width="2.75" stroke-linecap="round" stroke-linejoin="round"></path>
              <path d="M17.25 3.375C17.25 2.94402 17.4212 2.5307 17.726 2.22595C18.0307 1.92121 18.444 1.75 18.875 1.75H25.375C25.806 1.75 26.2193 1.92121 26.5241 2.22595C26.8288 2.5307 27 2.94402 27 3.375V9.875C27 10.306 26.8288 10.7193 26.5241 11.0241C26.2193 11.3288 25.806 11.5 25.375 11.5H18.875C18.444 11.5 18.0307 11.3288 17.726 11.0241C17.4212 10.7193 17.25 10.306 17.25 9.875V3.375Z" stroke="black" stroke-width="2.75" stroke-linecap="round" stroke-linejoin="round"></path>
              <path d="M1.5 19.125C1.5 18.694 1.67121 18.2807 1.97595 17.976C2.2807 17.6712 2.69402 17.5 3.125 17.5H9.625C10.056 17.5 10.4693 17.6712 10.7741 17.976C11.0788 18.2807 11.25 18.694 11.25 19.125V25.625C11.25 26.056 11.0788 26.4693 10.7741 26.7741C10.4693 27.0788 10.056 27.25 9.625 27.25H3.125C2.69402 27.25 2.2807 27.0788 1.97595 26.7741C1.67121 26.4693 1.5 26.056 1.5 25.625V19.125Z" stroke="black" stroke-width="2.75" stroke-linecap="round" stroke-linejoin="round"></path>
              <path d="M17.25 22.375H27M22.125 17.5V27.25" stroke="black" stroke-width="2.75" stroke-linecap="round" stroke-linejoin="round"></path>
            </svg>