<svg
              width="29"
              height="29"
              viewBox="0 0 29 29"
              fill="none"
              xmlns="http://www.w3.org/2000/svg"
            >
              <path
                d="M1 14.0889C1 15.8077 1.33855 17.5098 1.99633 19.0978C2.65411 20.6858 3.61823 22.1287 4.83365 23.3441C6.04906 24.5595 7.49197 25.5237 9.07999 26.1814C10.668 26.8392 12.37 27.1778 14.0889 27.1778C15.8077 27.1778 17.5098 26.8392 19.0978 26.1814C20.6858 25.5237 22.1287 24.5595 23.3441 23.3441C24.5595 22.1287 25.5237 20.6858 26.1814 19.0978C26.8392 17.5098 27.1778 15.8077 27.1778 14.0889C27.1778 12.37 26.8392 10.668 26.1814 9.07999C25.5237 7.49197 24.5595 6.04906 23.3441 4.83365C22.1287 3.61823 20.6858 2.65411 19.0978 1.99633C17.5098 1.33855 15.8077 1 14.0889 1C12.37 1 10.668 1.33855 9.07999 1.99633C7.49197 2.65411 6.04906 3.61823 4.83365 4.83365C3.61823 6.04906 2.65411 7.49197 1.99633 9.07999C1.33855 10.668 1 12.37 1 14.0889Z"
                stroke="#BFD2E0"
                stroke-width="2"
                stroke-linecap="round"
                stroke-linejoin="round"
              />
              <path
                d="M9.19727 15.1463L12.1059 18.0549L19.1131 10.3867"
                stroke="#BFD2E0"
                stroke-width="2"
                stroke-linecap="round"
                stroke-linejoin="round"
              />
            </svg>