<svg
  width="38"
  height="38"
  viewBox="0 0 38 38"
  fill="none"
  xmlns="http://www.w3.org/2000/svg"
>
  <circle
    cx="19"
    cy="19"
    r="18.5"
    fill="white"
    stroke="#F2F5F9"
  />
  <path
    d="M6 19C6 20.7189 6.33855 22.4209 6.99633 24.0089C7.65411 25.5969 8.61823 27.0398 9.83365 28.2553C11.0491 29.4707 12.492 30.4348 14.08 31.0926C15.668 31.7504 17.37 32.0889 19.0889 32.0889C20.8077 32.0889 22.5098 31.7504 24.0978 31.0926C25.6858 30.4348 27.1287 29.4707 28.3441 28.2553C29.5595 27.0398 30.5237 25.5969 31.1814 24.0089C31.8392 22.4209 32.1778 20.7189 32.1778 19C32.1778 17.2812 31.8392 15.5791 31.1814 13.9911C30.5237 12.4031 29.5595 10.9602 28.3441 9.74478C27.1287 8.52936 25.6858 7.56524 24.0978 6.90747C22.5098 6.24969 20.8077 5.91113 19.0889 5.91113C17.37 5.91113 15.668 6.24969 14.08 6.90747C12.492 7.56524 11.0491 8.52936 9.83365 9.74478C8.61823 10.9602 7.65411 12.4031 6.99633 13.9911C6.33855 15.5791 6 17.2812 6 19Z"
    fill="white"
    stroke="#BFD2E0"
    stroke-width="2"
    stroke-linecap="round"
    stroke-linejoin="round"
  />
  <path
    d="M14.1973 20.0577L17.1059 22.9663L24.1131 15.2981"
    stroke="#BFD2E0"
    stroke-width="2"
    stroke-linecap="round"
    stroke-linejoin="round"
  />
</svg>