<svg width="21" height="21" viewBox="0 0 21 21" fill="none" xmlns="http://www.w3.org/2000/svg">
                                <path d="M1 10.5959C1 11.8561 1.24821 13.1039 1.73045 14.2682C2.21269 15.4324 2.91952 16.4902 3.81059 17.3813C4.70165 18.2724 5.7595 18.9792 6.92374 19.4614C8.08797 19.9437 9.33579 20.1919 10.5959 20.1919C11.8561 20.1919 13.1039 19.9437 14.2682 19.4614C15.4324 18.9792 16.4902 18.2724 17.3813 17.3813C18.2724 16.4902 18.9792 15.4324 19.4614 14.2682C19.9437 13.1039 20.1919 11.8561 20.1919 10.5959C20.1919 9.33579 19.9437 8.08797 19.4614 6.92374C18.9792 5.7595 18.2724 4.70165 17.3813 3.81059C16.4902 2.91952 15.4324 2.21269 14.2682 1.73045C13.1039 1.24821 11.8561 1 10.5959 1C9.33579 1 8.08797 1.24821 6.92374 1.73045C5.7595 2.21269 4.70165 2.91952 3.81059 3.81059C2.91952 4.70165 2.21269 5.7595 1.73045 6.92374C1.24821 8.08797 1 9.33579 1 10.5959Z" stroke="#05a6e2" stroke-width="1.5" stroke-linecap="round" stroke-linejoin="round"></path>
                                <path d="M7.00972 11.3714L9.14215 13.5038L14.2794 7.88192" stroke="#05a6e2" stroke-width="1.5" stroke-linecap="round" stroke-linejoin="round"></path>
                              </svg>