<svg
  width="19"
  height="20"
  viewBox="0 0 19 20"
  fill="none"
  xmlns="http://www.w3.org/2000/svg"
  aria-hidden="true"
>
  <path
    d="M1 9.99999C1 10.7514 1.29851 11.4721 1.82986 12.0035C2.36122 12.5348 3.08189 12.8333 3.83333 12.8333C4.58478 12.8333 5.30545 12.5348 5.8368 12.0035C6.36816 11.4721 6.66667 10.7514 6.66667 9.99999C6.66667 9.24854 6.36816 8.52787 5.8368 7.99652C5.30545 7.46517 4.58478 7.16666 3.83333 7.16666C3.08189 7.16666 2.36122 7.46517 1.82986 7.99652C1.29851 8.52787 1 9.24854 1 9.99999Z"
    stroke="white"
    stroke-width="2"
    stroke-linecap="round"
    stroke-linejoin="round"
  />
  <path
    d="M12.333 4.33333C12.333 5.08478 12.6315 5.80545 13.1629 6.3368C13.6942 6.86816 14.4149 7.16667 15.1663 7.16667C15.9178 7.16667 16.6385 6.86816 17.1698 6.3368C17.7012 5.80545 17.9997 5.08478 17.9997 4.33333C17.9997 3.58189 17.7012 2.86122 17.1698 2.32986C16.6385 1.79851 15.9178 1.5 15.1663 1.5C14.4149 1.5 13.6942 1.79851 13.1629 2.32986C12.6315 2.86122 12.333 3.58189 12.333 4.33333Z"
    stroke="white"
    stroke-width="2"
    stroke-linecap="round"
    stroke-linejoin="round"
  />
  <path
    d="M12.333 15.6667C12.333 16.4181 12.6315 17.1388 13.1629 17.6701C13.6942 18.2015 14.4149 18.5 15.1663 18.5C15.9178 18.5 16.6385 18.2015 17.1698 17.6701C17.7012 17.1388 17.9997 16.4181 17.9997 15.6667C17.9997 14.9152 17.7012 14.1946 17.1698 13.6632C16.6385 13.1319 15.9178 12.8333 15.1663 12.8333C14.4149 12.8333 13.6942 13.1319 13.1629 13.6632C12.6315 14.1946 12.333 14.9152 12.333 15.6667Z"
    stroke="white"
    stroke-width="2"
    stroke-linecap="round"
    stroke-linejoin="round"
  />
  <path
    d="M6.38379 8.77224L12.6171 5.56113"
    stroke="white"
    stroke-width="2"
    stroke-linecap="round"
    stroke-linejoin="round"
  />
  <path
    d="M6.38379 11.2278L12.6171 14.4389"
    stroke="white"
    stroke-width="2"
    stroke-linecap="round"
    stroke-linejoin="round"
  />
</svg>