<svg width="60" height="60" viewBox="0 0 60 60" fill="none" xmlns="http://www.w3.org/2000/svg" class="mb-5">
                        <path d="M39 18H39.0289" stroke="#00A6E2" stroke-width="4.75" stroke-linecap="round" stroke-linejoin="round"></path>
                        <path d="M3 11.9999C3 9.61301 3.94821 7.32384 5.63602 5.63602C7.32384 3.94821 9.61301 3 11.9999 3H47.9997C50.3867 3 52.6759 3.94821 54.3637 5.63602C56.0515 7.32384 56.9997 9.61301 56.9997 11.9999V47.9997C56.9997 50.3867 56.0515 52.6759 54.3637 54.3637C52.6759 56.0515 50.3867 56.9997 47.9997 56.9997H11.9999C9.61301 56.9997 7.32384 56.0515 5.63602 54.3637C3.94821 52.6759 3 50.3867 3 47.9997V11.9999Z" stroke="#00A6E2" stroke-width="4.75" stroke-linecap="round" stroke-linejoin="round"></path>
                        <path d="M3 41.9999L17.9999 27C20.7839 24.321 24.2159 24.321 26.9999 27L41.9998 41.9999" stroke="#00A6E2" stroke-width="4.75" stroke-linecap="round" stroke-linejoin="round"></path>
                        <path d="M36.0005 35.9999L39.0005 33C41.7845 30.321 45.2164 30.321 48.0004 33L57.0004 41.9999" stroke="#00A6E2" stroke-width="4.75" stroke-linecap="round" stroke-linejoin="round"></path>
                      </svg>