<svg
                              width="45"
                              height="45"
                              viewBox="0 0 45 45"
                              fill="none"
                              xmlns="http://www.w3.org/2000/svg"
                            >
                              <rect
                                width="45"
                                height="45"
                                rx="22.5"
                                fill="#004388"
                              />
                              <path
                                d="M17 18H16C15.4696 18 14.9609 18.2107 14.5858 18.5858C14.2107 18.9609 14 19.4696 14 20V28.9999C14 29.5304 14.2107 30.0391 14.5858 30.4141C14.9609 30.7892 15.4696 30.9999 16 30.9999H24.9999C25.5303 30.9999 26.039 30.7892 26.4141 30.4141C26.7892 30.0391 26.9999 29.5304 26.9999 28.9999V27.9999"
                                stroke="white"
                                stroke-width="1.5"
                                stroke-linecap="round"
                                stroke-linejoin="round"
                              />
                              <path
                                d="M30.3854 17.5851C30.7792 17.1912 31.0005 16.6571 31.0005 16.1001C31.0005 15.5431 30.7792 15.0089 30.3854 14.6151C29.9916 14.2213 29.4574 14 28.9004 14C28.3434 14 27.8093 14.2213 27.4154 14.6151L19.0005 23V26H22.0005L30.3854 17.5851Z"
                                stroke="white"
                                stroke-width="1.5"
                                stroke-linecap="round"
                                stroke-linejoin="round"
                              />
                              <path
                                d="M25.9995 16L28.9995 19"
                                stroke="white"
                                stroke-width="1.5"
                                stroke-linecap="round"
                                stroke-linejoin="round"
                              />
                            </svg>