<svg
              width="18"
              height="18"
              viewBox="0 0 18 18"
              fill="none"
              xmlns="http://www.w3.org/2000/svg"
            >
              <path
                d="M3 1H13L17 5V15C17 15.5304 16.7893 16.0391 16.4142 16.4142C16.0391 16.7893 15.5304 17 15 17H3C2.46957 17 1.96086 16.7893 1.58579 16.4142C1.21071 16.0391 1 15.5304 1 15V3C1 2.46957 1.21071 1.96086 1.58579 1.58579C1.96086 1.21071 2.46957 1 3 1Z"
                stroke="white"
                stroke-width="2"
                stroke-linecap="round"
                stroke-linejoin="round"
              />
              <path
                d="M7 11C7 11.5304 7.21071 12.0391 7.58579 12.4142C7.96086 12.7893 8.46957 13 9 13C9.53043 13 10.0391 12.7893 10.4142 12.4142C10.7893 12.0391 11 11.5304 11 11C11 10.4696 10.7893 9.96086 10.4142 9.58579C10.0391 9.21071 9.53043 9 9 9C8.46957 9 7.96086 9.21071 7.58579 9.58579C7.21071 9.96086 7 10.4696 7 11Z"
                stroke="white"
                stroke-width="2"
                stroke-linecap="round"
                stroke-linejoin="round"
              />
              <path
                d="M11 1V5H5V1"
                stroke="white"
                stroke-width="2"
                stroke-linecap="round"
                stroke-linejoin="round"
              />
            </svg>