<svg width="48" height="48" viewBox="0 0 48 48" fill="none" xmlns="http://www.w3.org/2000/svg">
<rect width="48" height="48" rx="24" fill="#DF342E"/>
<path d="M14 17.75H34" stroke="white" stroke-width="2" stroke-linecap="round" stroke-linejoin="round"/>
<path d="M21.5 22.75V30.25" stroke="white" stroke-width="2" stroke-linecap="round" stroke-linejoin="round"/>
<path d="M26.5 22.75V30.25" stroke="white" stroke-width="2" stroke-linecap="round" stroke-linejoin="round"/>
<path d="M15.25 17.75L16.5 32.75C16.5 33.413 16.7634 34.0489 17.2322 34.5178C17.7011 34.9866 18.337 35.25 19 35.25H29C29.663 35.25 30.2989 34.9866 30.7678 34.5178C31.2366 34.0489 31.5 33.413 31.5 32.75L32.75 17.75" stroke="white" stroke-width="2" stroke-linecap="round" stroke-linejoin="round"/>
<path d="M20.25 17.75V14C20.25 13.6685 20.3817 13.3505 20.6161 13.1161C20.8505 12.8817 21.1685 12.75 21.5 12.75H26.5C26.8315 12.75 27.1495 12.8817 27.3839 13.1161C27.6183 13.3505 27.75 13.6685 27.75 14V17.75" stroke="white" stroke-width="2" stroke-linecap="round" stroke-linejoin="round"/>
</svg>
