<svg width="25" height="23" viewBox="0 0 25 23" fill="none" xmlns="http://www.w3.org/2000/svg">
<path d="M15.0556 6.11111V3.55556C15.0556 2.87778 14.7863 2.22776 14.3071 1.7485C13.8278 1.26925 13.1778 1 12.5 1H3.55556C2.87778 1 2.22776 1.26925 1.7485 1.7485C1.26925 2.22776 1 2.87778 1 3.55556V18.8889C1 19.5667 1.26925 20.2167 1.7485 20.6959C2.22776 21.1752 2.87778 21.4444 3.55556 21.4444H12.5C13.1778 21.4444 13.8278 21.1752 14.3071 20.6959C14.7863 20.2167 15.0556 19.5667 15.0556 18.8889V16.3333" stroke="black" stroke-width="2" stroke-linecap="round" stroke-linejoin="round"/>
<path d="M8.6665 11.2221H23.9998L20.1665 7.38879" stroke="black" stroke-width="2" stroke-linecap="round" stroke-linejoin="round"/>
<path d="M20.1665 15.0555L23.9998 11.2222" stroke="black" stroke-width="2" stroke-linecap="round" stroke-linejoin="round"/>
</svg>
