<svg width="26" height="26" viewBox="0 0 26 26" fill="none" xmlns="http://www.w3.org/2000/svg">
<path d="M1 13C1 14.5759 1.31039 16.1363 1.91345 17.5922C2.5165 19.0481 3.40042 20.371 4.51472 21.4853C5.62902 22.5996 6.95189 23.4835 8.4078 24.0866C9.86371 24.6896 11.4241 25 13 25C14.5759 25 16.1363 24.6896 17.5922 24.0866C19.0481 23.4835 20.371 22.5996 21.4853 21.4853C22.5996 20.371 23.4835 19.0481 24.0866 17.5922C24.6896 16.1363 25 14.5759 25 13C25 11.4241 24.6896 9.86371 24.0866 8.4078C23.4835 6.95189 22.5996 5.62902 21.4853 4.51472C20.371 3.40042 19.0481 2.5165 17.5922 1.91345C16.1363 1.31039 14.5759 1 13 1C11.4241 1 9.86371 1.31039 8.4078 1.91345C6.95189 2.5165 5.62902 3.40042 4.51472 4.51472C3.40042 5.62902 2.5165 6.95189 1.91345 8.4078C1.31039 9.86371 1 11.4241 1 13Z" stroke="black" stroke-width="2" stroke-linecap="round" stroke-linejoin="round"/>
<path d="M9 10.3333C9 11.3941 9.42143 12.4115 10.1716 13.1617C10.9217 13.9118 11.9391 14.3333 13 14.3333C14.0609 14.3333 15.0783 13.9118 15.8284 13.1617C16.5786 12.4115 17 11.3941 17 10.3333C17 9.27239 16.5786 8.25497 15.8284 7.50482C15.0783 6.75468 14.0609 6.33325 13 6.33325C11.9391 6.33325 10.9217 6.75468 10.1716 7.50482C9.42143 8.25497 9 9.27239 9 10.3333Z" stroke="black" stroke-width="2" stroke-linecap="round" stroke-linejoin="round"/>
<path d="M5.22412 22.1319C5.55413 21.0336 6.22941 20.0708 7.14978 19.3866C8.07015 18.7023 9.18658 18.3329 10.3335 18.3333H15.6668C16.8151 18.3329 17.9329 18.7031 18.854 19.389C19.775 20.0748 20.4501 21.0396 20.7788 22.1399" stroke="black" stroke-width="2" stroke-linecap="round" stroke-linejoin="round"/>
</svg>
